# xmcd
#
# Track frame offsets: 
#        150
#        14735
#        26340
#        38425
#        50078
#        63980
#        76420
#        88023
#        100490
#        114843
#        129148
#        142490
#        156283
#        171745
#        183738
#        197265
#        213488
#        224773
#        240200
#        253168
#        264968
#        276330
#        288053
#        299405
#        312888
#        322445
#
# Disc length: 4426 seconds
#
# Revision: 3
# Processed by: cddbd v1.5.2PL0 Copyright (c) Steve Scherf et al.
# Submitted via: ExactAudioCopy v0.99pb4
#
DISCID=9111481a
DTITLE=Big Maybelle - The Complete OKeh Sessions 1952-'55
DYEAR=1994
DGENRE=R&B
TTITLE0=Just Want Your Love
TTITLE1=So Good to My Baby
TTITLE2=Gabbin' Blues (Don't Run My Business)
TTITLE3=My Country Man
TTITLE4=Rain Down Rain
TTITLE5=Way Back Home
TTITLE6=Please Stay Away from My Sam
TTITLE7=Jinny Mule
TTITLE8=Send for Me
TTITLE9=Maybelle's Blues
TTITLE10=I've Got a Feelin'
TTITLE11=You'll Never Know
TTITLE12=No More Trouble Out of Me
TTITLE13=My Big Mistake
TTITLE14=Ain't No Use
TTITLE15=I'm Getting 'Long Alright
TTITLE16=You'll Be Sorry
TTITLE17=Hair Dressin' Women
TTITLE18=One Monkey Don't Stop No Show
TTITLE19=Don't Leave Poor Me
TTITLE20=Ain't to be Played With
TTITLE21=New Kind of Mambo
TTITLE22=Ocean of Tears
TTITLE23=Whole Lot of Shakin' Goin' On
TTITLE24=The Other Night
TTITLE25=Such a Cutie
EXTD=Personnel:\n10/8/52 Session:\nAlfred Cobbs, trombone - Sam "The Ma
EXTD=n" Taylor, tenor sax - Dave McRae, baritone sax - Fletcher Smith, p
EXTD=iano - James Cannady, guitar - Grachan Moncur, bass - Charlie Smith,
EXTD=drums\nArranged and conducted by Leroy Kirkland.\n10/29/52 sessi
EXTD=on:\nSame as above, except Marty Wilson replaces Charlie Smith on
EXTD=drums.\n6/11/53 session:\nEli Robinson, trombone - Sam "The Man" 
EXTD=Taylor, tenor sax - Dave McRae, baritone sax - Lee Anderson, piano;
EXTD=Brownie McGhee, guitar - Al Hall,bass - Marty Wilson, drums.\nArra
EXTD=nged and conducted by Leroy Kirkland.\n1/20/54 session:\nJoe Wild
EXTD=er, trumpet - Paul Ricca, alto sax, Sam "The Man" Taylor, tenor sa
EXTD=x - Dave McRae, baritone sax - Al Williams, piano - Mickey Baker, gu
EXTD=itar - Lloyd Trotman, bass - Jimmy Crawford, drums\nArranged and co
EXTD=nducted by Danny Mendelsohn.\n3/2/54 session:\nSame as above. exc
EXTD=ept Taft Jordan replaces Joe Wilder on trumpet.\n9/23/54 session:
EXTD=\nSam "The Man" Taylor, Maurice Simon, tenor saxes - Leslie Johnak
EXTD=ins. baritone sax - Ernie Hayes, piano - Mickey Baker, guitar - Norm
EXTD=an Keenan, bass - Panama Francis, drums\nArranged and conducted by
EXTD=Leroy Kirkland.\n3/21/55 session:\nBilly Byers, trombone - Jerry 
EXTD=Richardson, alto sax - Budd Johnson, tenor sax - Heywood Henry, bar
EXTD=itone sax - Ernie Hayes, piano - Mickey Baker, guitar - Lloyd Trotma
EXTD=n, bass - Hervie Lovelle, drums\nArranged and produced by Quincy J
EXTD=ones. YEAR: 1952 ID3G: 0
EXTT0=master #: CO 48457\nrec: 10/8/52\nrel: OKEH 6955
EXTT1=master #: CO 48458\nrec: 10/8/52\nrel: EPIC LP EG 38456
EXTT2=master #: CO 48459\nrec: 10/8/52\nrel: OKEH 6931
EXTT3=master #: CO 48460\nrec: 10/8/52\nrel: OKEH 7009
EXTT4=master #: CO 48519\nrec: 10/29/52\nrel: OKEH 6931
EXTT5=master #: CO 48520\nrec: 10/29/52\nrel: OKEH 6955
EXTT6=master #: CO 48520\nrec: 6/11/53\nrel: EPIC LP EG 38456
EXTT7=master #: CO 49521\nrec: 6/11/53\nrel: OKEH 6998
EXTT8=master #: CO 49522\nrec: 6/11/53\nrel: OKEH 6998
EXTT9=master #: CO 49523\nrec: 6/11/53\nrel: OKEH 7009
EXTT10=master #: CO 50758\nrec: 1/20/54\nrel: OKEH 7026
EXTT11=master #: CO 50759\nrec: 1/20/54\nrel: OKEH 7026
EXTT12=master #: CO 50760\nrec: 1/20/54\nrel: EPIC LP EG 38456
EXTT13=master #: CO 50761\nrec: 1/20/54\nrel: OKEH 7042
EXTT14=master #: CO 51014\nrec: 3/2/54\nrel: OKEH 7053
EXTT15=master #: CO 51015\nrec: 3/2/54\nrel: OKEH 7042
EXTT16=master #: CO 51016\nrec: 3/2/54\nrel: EPIC LP EG 38456
EXTT17=master #: CO 51017\nrec: 3/2/54\nrel: EPIC LP EG 38456
EXTT18=master #: CO 51918\nrec: 9/23/54\nrel: OKEH 7060
EXTT19=master #: CO 51919\nrec: 9/23/54\nrel: OKEH 7053
EXTT20=master #: CO 51920\nrec: 9/23/54\nrel: EPIC LP EG 38456
EXTT21=master #: CO 51921\nrec: 9/23/54\nrel: OKEH 7069
EXTT22=master #: CO 53196\nrec: 3/21/55\nrel: OKEH R&B STORY BOX SET: 
EXTT22=EPIC/OKEH 48912
EXTT23=master #: CO 53197\nrec: 3/21/55\nrel: OKEH 7060
EXTT24=master #: CO 53198\nrec: 3/21/55\nrel: OKEH 7066
EXTT25=master #: CO 53199\nrec: 3/21/55\nrel: OKEH 7066
PLAYORDER=
